<?xml version="1.0" encoding="UTF-8"?>
<svg width="220px" height="75px" viewBox="0 0 220 75" version="1.1" xmlns="http://www.w3.org/2000/svg" xmlns:xlink="http://www.w3.org/1999/xlink">
    <title>Group</title>
    <defs>
        <polygon id="path-1" points="0.182325 0.497475 3.265625 0.497475 3.265625 17.0841 0.182325 17.0841"></polygon>
    </defs>
    <g id="Page-1" stroke="none" stroke-width="1" fill="none" fill-rule="evenodd">
        <g id="Royal-Homepage" transform="translate(-240.000000, -16.000000)">
            <g id="Group" transform="translate(240.000000, 16.000000)">
                <path d="M88.0780313,45.3957625 C87.9742188,45.29195 87.9226563,45.1661375 87.9226563,45.018325 L87.9226563,30.5278875 C87.9226563,30.36495 87.9742188,30.2357 88.0780313,30.1387625 C88.1818437,30.0432 88.3076562,29.9943875 88.4554687,29.9943875 L90.5894688,29.9943875 C90.7524063,29.9943875 90.8816563,30.0432 90.9785938,30.1387625 C91.0741562,30.2357 91.1222813,30.36495 91.1222813,30.5278875 L91.1222813,45.018325 C91.1222813,45.1661375 91.0741562,45.29195 90.9785938,45.3957625 C90.8816563,45.499575 90.7524063,45.5511375 90.5894688,45.5511375 L88.4554687,45.5511375 C88.3076562,45.5511375 88.1818437,45.499575 88.0780313,45.3957625" id="Fill-561" fill="#0033A1"></path>
                <path d="M94.0337062,45.3957625 C93.9298938,45.29195 93.8783313,45.1661375 93.8783313,45.018325 L93.8783313,34.52845 C93.8783313,34.3655125 93.9298938,34.2362625 94.0337062,34.139325 C94.1375187,34.0437625 94.2633312,33.99495 94.4111437,33.99495 L96.2557062,33.99495 C96.4186438,33.99495 96.5485813,34.0437625 96.6448312,34.139325 C96.7410812,34.2362625 96.7892063,34.3655125 96.7892063,34.52845 L96.7892063,35.4393875 C97.6925813,34.3283875 98.9300812,33.7728875 100.501019,33.7728875 C101.863644,33.7728875 102.945769,34.2170125 103.745331,35.1066375 C104.545581,35.9948875 104.945706,37.2172625 104.945706,38.773075 L104.945706,45.018325 C104.945706,45.1661375 104.896894,45.29195 104.800644,45.3957625 C104.704394,45.499575 104.574456,45.5511375 104.411519,45.5511375 L102.411581,45.5511375 C102.263769,45.5511375 102.137269,45.499575 102.034144,45.3957625 C101.930331,45.29195 101.878769,45.1661375 101.878769,45.018325 L101.878769,38.90645 C101.878769,38.047075 101.667706,37.3767625 101.245581,36.8955125 C100.822769,36.4142625 100.219144,36.17295 99.4340188,36.17295 C98.6784562,36.17295 98.0707062,36.4177 97.6121438,36.9065125 C97.1522062,37.395325 96.9225812,38.0622 96.9225812,38.90645 L96.9225812,45.018325 C96.9225812,45.1661375 96.8744562,45.29195 96.7788938,45.3957625 C96.6819562,45.499575 96.5520188,45.5511375 96.3897688,45.5511375 L94.4111437,45.5511375 C94.2633312,45.5511375 94.1375187,45.499575 94.0337062,45.3957625" id="Fill-563" fill="#0033A1"></path>
                <path d="M109.389981,44.49555 C108.708669,43.7922375 108.367669,42.758925 108.367669,41.3956125 L108.367669,36.373425 L106.612481,36.373425 C106.463981,36.373425 106.337481,36.321175 106.234356,36.2173625 C106.130544,36.11355 106.078981,35.9877375 106.078981,35.8392375 L106.078981,34.528175 C106.078981,34.3803625 106.130544,34.25455 106.234356,34.1507375 C106.337481,34.046925 106.463981,33.994675 106.612481,33.994675 L108.367669,33.994675 L108.367669,30.30555 C108.367669,30.1433 108.419231,30.0133625 108.523044,29.9171125 C108.626856,29.8208625 108.752669,29.77205 108.901169,29.77205 L110.745731,29.77205 C110.908669,29.77205 111.037919,29.8208625 111.134856,29.9171125 C111.230419,30.0133625 111.279231,30.1433 111.279231,30.30555 L111.279231,33.994675 L114.057419,33.994675 C114.205231,33.994675 114.331044,34.046925 114.434856,34.1507375 C114.538669,34.25455 114.590919,34.3803625 114.590919,34.528175 L114.590919,35.8392375 C114.590919,35.9877375 114.538669,36.11355 114.434856,36.2173625 C114.331044,36.321175 114.205231,36.373425 114.057419,36.373425 L111.279231,36.373425 L111.279231,41.1508625 C111.279231,41.788175 111.389919,42.269425 111.612669,42.5953 C111.834731,42.921175 112.197731,43.0841125 112.700981,43.0841125 L114.257481,43.0841125 C114.419731,43.0841125 114.549669,43.132925 114.645919,43.2284875 C114.742169,43.325425 114.790294,43.454675 114.790294,43.6176125 L114.790294,45.01805 C114.790294,45.16655 114.742169,45.2923625 114.645919,45.3954875 C114.549669,45.4999875 114.419731,45.5508625 114.257481,45.5508625 L112.434919,45.5508625 C111.086044,45.5508625 110.071294,45.19955 109.389981,44.49555" id="Fill-565" fill="#0033A1"></path>
                <path d="M123.746494,38.7508 L123.746494,38.7068 C123.746494,37.8323 123.527869,37.132425 123.091306,36.6064875 C122.653369,36.08055 122.057306,35.8172375 121.301744,35.8172375 C120.546181,35.8172375 119.953556,36.08055 119.524556,36.6064875 C119.094181,37.132425 118.878994,37.8323 118.878994,38.7068 L118.878994,38.7508 L123.746494,38.7508 Z M117.379556,44.351175 C116.408806,43.4031125 115.893869,42.054925 115.834744,40.3066125 L115.812744,39.750425 C115.812744,37.8989875 116.298119,36.439425 117.268181,35.3731125 C118.238244,34.3061125 119.582994,33.7726125 121.301744,33.7726125 C123.065181,33.7726125 124.424369,34.3061125 125.379994,35.3731125 C126.335619,36.439425 126.813431,37.8618625 126.813431,39.6397375 L126.813431,40.10655 C126.813431,40.2543625 126.761181,40.3808625 126.657369,40.484675 C126.554244,40.5878 126.420869,40.64005 126.257931,40.64005 L118.878994,40.64005 L118.878994,40.817425 C118.909244,41.6472375 119.135431,42.332675 119.557556,42.87305 C119.979681,43.4141125 120.561306,43.6843 121.301744,43.6843 C122.145994,43.6843 122.835556,43.3439875 123.369056,42.6619875 C123.502431,42.4997375 123.605556,42.3993625 123.679806,42.3622375 C123.754056,42.3258 123.879181,42.30655 124.057931,42.30655 L126.013181,42.30655 C126.146556,42.30655 126.261369,42.343675 126.357619,42.417925 C126.454556,42.492175 126.501994,42.5953 126.501994,42.728675 C126.501994,43.0841125 126.290931,43.5028 125.868806,43.9847375 C125.446681,44.4659875 124.842369,44.884675 124.057931,45.2401125 C123.272119,45.59555 122.361181,45.7736125 121.323744,45.7736125 C119.664806,45.7736125 118.349619,45.2992375 117.379556,44.351175 L117.379556,44.351175 Z" id="Fill-567" fill="#0033A1"></path>
                <path d="M128.879919,45.3957625 C128.776106,45.29195 128.724544,45.1661375 128.724544,45.018325 L128.724544,34.55045 C128.724544,34.3875125 128.776106,34.2541375 128.879919,34.1510125 C128.983731,34.0465125 129.109544,33.99495 129.257356,33.99495 L131.079919,33.99495 C131.242856,33.99495 131.376231,34.0465125 131.480044,34.1510125 C131.583856,34.2541375 131.635419,34.3875125 131.635419,34.55045 L131.635419,35.462075 C132.376544,34.48445 133.442856,33.99495 134.835731,33.99495 L135.769356,33.99495 C135.932294,33.99495 136.061544,34.0437625 136.158481,34.139325 C136.254731,34.2362625 136.302856,34.3655125 136.302856,34.52845 L136.302856,36.15095 C136.302856,36.29945 136.254731,36.4252625 136.158481,36.5283875 C136.061544,36.6328875 135.932294,36.6837625 135.769356,36.6837625 L134.013481,36.6837625 C133.317044,36.6837625 132.769106,36.883825 132.368981,37.28395 C131.968856,37.684075 131.768794,38.2327 131.768794,38.92845 L131.768794,45.018325 C131.768794,45.1661375 131.716544,45.29195 131.613419,45.3957625 C131.509606,45.499575 131.383106,45.5511375 131.235981,45.5511375 L129.257356,45.5511375 C129.109544,45.5511375 128.983731,45.499575 128.879919,45.3957625" id="Fill-569" fill="#0033A1"></path>
                <path d="M137.746813,45.3957625 C137.643,45.29195 137.591438,45.1661375 137.591438,45.018325 L137.591438,34.52845 C137.591438,34.3655125 137.643,34.2362625 137.746813,34.139325 C137.850625,34.0437625 137.976438,33.99495 138.12425,33.99495 L139.9695,33.99495 C140.132438,33.99495 140.261688,34.0437625 140.357938,34.139325 C140.454875,34.2362625 140.503,34.3655125 140.503,34.52845 L140.503,35.4393875 C141.406375,34.3283875 142.643188,33.7728875 144.213438,33.7728875 C145.57675,33.7728875 146.658875,34.2170125 147.458438,35.1066375 C148.258688,35.9948875 148.658813,37.2172625 148.658813,38.773075 L148.658813,45.018325 C148.658813,45.1661375 148.610688,45.29195 148.51375,45.3957625 C148.418188,45.499575 148.28825,45.5511375 148.124625,45.5511375 L146.125375,45.5511375 C145.976875,45.5511375 145.850375,45.499575 145.74725,45.3957625 C145.643438,45.29195 145.591875,45.1661375 145.591875,45.018325 L145.591875,38.90645 C145.591875,38.047075 145.380813,37.3767625 144.958688,36.8955125 C144.536563,36.4142625 143.93225,36.17295 143.147125,36.17295 C142.391563,36.17295 141.783813,36.4177 141.324563,36.9065125 C140.865313,37.395325 140.635688,38.0622 140.635688,38.90645 L140.635688,45.018325 C140.635688,45.1661375 140.587563,45.29195 140.492,45.3957625 C140.395063,45.499575 140.265125,45.5511375 140.102875,45.5511375 L138.12425,45.5511375 C137.976438,45.5511375 137.850625,45.499575 137.746813,45.3957625" id="Fill-571" fill="#0033A1"></path>
                <path d="M157.147856,42.8399125 C157.666231,42.3064125 157.926106,41.5364125 157.926106,40.5285375 L157.926106,40.0844125 L155.703419,40.43985 C153.999106,40.7066 153.147294,41.277225 153.147294,42.1510375 C153.147294,42.6254125 153.343919,42.99185 153.736481,43.2510375 C154.129044,43.510225 154.599294,43.639475 155.147919,43.639475 C155.962606,43.639475 156.629481,43.3734125 157.147856,42.8399125 M152.314731,45.3176625 C151.684294,45.014475 151.187919,44.60335 150.825606,44.0842875 C150.461919,43.5659125 150.281106,42.995975 150.281106,42.3737875 C150.281106,41.3659125 150.688106,40.551225 151.502794,39.92835 C152.317481,39.3061625 153.436731,38.8840375 154.859169,38.661975 L157.903419,38.21785 L157.903419,37.7510375 C157.903419,37.113725 157.740481,36.632475 157.414606,36.3059125 C157.088731,35.980725 156.570356,35.8171 155.858794,35.8171 C155.369981,35.8171 154.977419,35.9057875 154.681106,36.08385 C154.384794,36.2619125 154.144169,36.4434125 153.958544,36.62835 C153.772919,36.813975 153.651231,36.93635 153.592794,36.995475 C153.532981,37.1735375 153.421606,37.2615375 153.259356,37.2615375 L151.525481,37.2615375 C151.392106,37.2615375 151.277294,37.2175375 151.181044,37.12885 C151.084794,37.039475 151.035981,36.921225 151.035981,36.772725 C151.051106,36.40285 151.232606,35.9841625 151.581169,35.51735 C151.929044,35.0505375 152.465981,34.6435375 153.191981,34.294975 C153.917981,33.9471 154.814481,33.772475 155.880794,33.772475 C157.629794,33.772475 158.903731,34.165725 159.703981,34.95085 C160.503544,35.735975 160.904356,36.76585 160.904356,38.0397875 L160.904356,45.0179125 C160.904356,45.165725 160.855544,45.292225 160.759294,45.3960375 C160.663044,45.4991625 160.533106,45.5514125 160.370169,45.5514125 L158.525606,45.5514125 C158.377794,45.5514125 158.251981,45.4991625 158.148169,45.3960375 C158.044356,45.292225 157.992106,45.165725 157.992106,45.0179125 L157.992106,44.1516625 C157.666231,44.62535 157.206981,45.014475 156.614356,45.3176625 C156.021731,45.6215375 155.281294,45.773475 154.391669,45.773475 C153.636794,45.773475 152.943794,45.6215375 152.314731,45.3176625" id="Fill-573" fill="#0033A1"></path>
                <path d="M165.393181,44.49555 C164.711181,43.7922375 164.370869,42.758925 164.370869,41.3956125 L164.370869,36.373425 L162.614994,36.373425 C162.466494,36.373425 162.340681,36.321175 162.237556,36.2173625 C162.133056,36.11355 162.081494,35.9877375 162.081494,35.8392375 L162.081494,34.528175 C162.081494,34.3803625 162.133056,34.25455 162.237556,34.1507375 C162.340681,34.046925 162.466494,33.994675 162.614994,33.994675 L164.370869,33.994675 L164.370869,30.30555 C164.370869,30.1433 164.422431,30.0133625 164.526244,29.9171125 C164.630056,29.8208625 164.755869,29.77205 164.903681,29.77205 L166.748931,29.77205 C166.911181,29.77205 167.041119,29.8208625 167.138056,29.9171125 C167.233619,30.0133625 167.281744,30.1433 167.281744,30.30555 L167.281744,33.994675 L170.059931,33.994675 C170.208431,33.994675 170.333556,34.046925 170.437369,34.1507375 C170.541181,34.25455 170.593431,34.3803625 170.593431,34.528175 L170.593431,35.8392375 C170.593431,35.9877375 170.541181,36.11355 170.437369,36.2173625 C170.333556,36.321175 170.208431,36.373425 170.059931,36.373425 L167.281744,36.373425 L167.281744,41.1508625 C167.281744,41.788175 167.393119,42.269425 167.615181,42.5953 C167.837931,42.921175 168.200244,43.0841125 168.704181,43.0841125 L170.259994,43.0841125 C170.422244,43.0841125 170.552869,43.132925 170.648431,43.2284875 C170.744681,43.325425 170.793494,43.454675 170.793494,43.6176125 L170.793494,45.01805 C170.793494,45.16655 170.744681,45.2923625 170.648431,45.3954875 C170.552869,45.4999875 170.422244,45.5508625 170.259994,45.5508625 L168.437431,45.5508625 C167.089244,45.5508625 166.073806,45.19955 165.393181,44.49555" id="Fill-575" fill="#0033A1"></path>
                <path d="M172.482338,45.3957625 C172.378525,45.29195 172.326275,45.1661375 172.326275,45.018325 L172.326275,34.52845 C172.326275,34.3655125 172.378525,34.2362625 172.482338,34.139325 C172.58615,34.0437625 172.711963,33.99495 172.859775,33.99495 L174.749025,33.99495 C174.896838,33.99495 175.023338,34.0465125 175.126463,34.1510125 C175.230275,34.2541375 175.282525,34.37995 175.282525,34.52845 L175.282525,45.018325 C175.282525,45.1661375 175.230275,45.29195 175.126463,45.3957625 C175.023338,45.499575 174.896838,45.5511375 174.749025,45.5511375 L172.859775,45.5511375 C172.711963,45.5511375 172.58615,45.499575 172.482338,45.3957625 M172.39365,31.950325 C172.28915,31.8472 172.237588,31.7213875 172.237588,31.5728875 L172.237588,29.9503875 C172.237588,29.78745 172.28915,29.654075 172.39365,29.5502625 C172.496775,29.4471375 172.622588,29.3948875 172.771775,29.3948875 L174.815713,29.3948875 C174.97865,29.3948875 175.112025,29.4471375 175.21515,29.5502625 C175.318963,29.654075 175.371213,29.78745 175.371213,29.9503875 L175.371213,31.5728875 C175.371213,31.7213875 175.315525,31.8472 175.20415,31.950325 C175.093463,32.0541375 174.963525,32.1057 174.815713,32.1057 L172.771775,32.1057 C172.622588,32.1057 172.496775,32.0541375 172.39365,31.950325" id="Fill-577" fill="#0033A1"></path>
                <path d="M184.716125,42.7955 C185.138938,42.3066875 185.364438,41.58825 185.394,40.6395 C185.409125,40.4916875 185.416,40.2029375 185.416,39.77325 C185.416,39.3435625 185.409125,39.0548125 185.394,38.9063125 C185.364438,37.95825 185.134813,37.236375 184.705813,36.7393125 C184.275438,36.243625 183.67525,35.99475 182.90525,35.99475 C182.119438,35.99475 181.512375,36.243625 181.082688,36.7393125 C180.653,37.236375 180.423375,37.95825 180.393813,38.9063125 L180.371813,39.77325 L180.393813,40.6395 C180.423375,41.58825 180.653,42.3066875 181.082688,42.7955 C181.512375,43.285 182.119438,43.5290625 182.90525,43.5290625 C183.690375,43.5290625 184.294,43.285 184.716125,42.7955 M178.860688,44.44 C177.912625,43.5510625 177.400438,42.321125 177.326875,40.750875 L177.304875,39.77325 L177.326875,38.7949375 C177.400438,37.2398125 177.9195,36.014 178.883375,35.1175 C179.845188,34.221 181.1865,33.77275 182.90525,33.77275 C184.608875,33.77275 185.941938,34.221 186.905125,35.1175 C187.868313,36.014 188.386688,37.2398125 188.461625,38.7949375 C188.475375,38.973 188.482938,39.298875 188.482938,39.77325 C188.482938,40.247625 188.475375,40.5728125 188.461625,40.750875 C188.386688,42.321125 187.875875,43.5510625 186.927813,44.44 C185.979063,45.3289375 184.638438,45.77375 182.90525,45.77375 C181.156938,45.77375 179.80875,45.3289375 178.860688,44.44" id="Fill-579" fill="#0033A1"></path>
                <path d="M190.660663,45.3957625 C190.55685,45.29195 190.505288,45.1661375 190.505288,45.018325 L190.505288,34.52845 C190.505288,34.3655125 190.55685,34.2362625 190.660663,34.139325 C190.764475,34.0437625 190.890287,33.99495 191.0381,33.99495 L192.88335,33.99495 C193.046288,33.99495 193.175538,34.0437625 193.271788,34.139325 C193.368725,34.2362625 193.41685,34.3655125 193.41685,34.52845 L193.41685,35.4393875 C194.320225,34.3283875 195.557038,33.7728875 197.127288,33.7728875 C198.4906,33.7728875 199.572725,34.2170125 200.372288,35.1066375 C201.172538,35.9948875 201.572663,37.2172625 201.572663,38.773075 L201.572663,45.018325 C201.572663,45.1661375 201.524538,45.29195 201.428288,45.3957625 C201.332038,45.499575 201.2021,45.5511375 201.039163,45.5511375 L199.039225,45.5511375 C198.890725,45.5511375 198.764225,45.499575 198.6611,45.3957625 C198.557288,45.29195 198.505725,45.1661375 198.505725,45.018325 L198.505725,38.90645 C198.505725,38.047075 198.294663,37.3767625 197.872538,36.8955125 C197.450413,36.4142625 196.8461,36.17295 196.060975,36.17295 C195.305413,36.17295 194.69835,36.4177 194.238412,36.9065125 C193.779162,37.395325 193.549538,38.0622 193.549538,38.90645 L193.549538,45.018325 C193.549538,45.1661375 193.501412,45.29195 193.40585,45.3957625 C193.308913,45.499575 193.178975,45.5511375 193.016725,45.5511375 L191.0381,45.5511375 C190.890287,45.5511375 190.764475,45.499575 190.660663,45.3957625" id="Fill-581" fill="#0033A1"></path>
                <path d="M210.06205,42.8399125 C210.579738,42.3064125 210.839613,41.5364125 210.839613,40.5285375 L210.839613,40.0844125 L208.616925,40.43985 C206.9133,40.7066 206.061488,41.277225 206.061488,42.1510375 C206.061488,42.6254125 206.258113,42.99185 206.649988,43.2510375 C207.04255,43.510225 207.513488,43.639475 208.061425,43.639475 C208.8768,43.639475 209.542988,43.3734125 210.06205,42.8399125 M205.228238,45.3176625 C204.5978,45.014475 204.102113,44.60335 203.739113,44.0842875 C203.376113,43.5659125 203.194613,42.995975 203.194613,42.3737875 C203.194613,41.3659125 203.6023,40.551225 204.416988,39.92835 C205.231675,39.3061625 206.350238,38.8840375 207.773363,38.661975 L210.817613,38.21785 L210.817613,37.7510375 C210.817613,37.113725 210.653988,36.632475 210.3288,36.3059125 C210.002238,35.980725 209.483863,35.8171 208.7723,35.8171 C208.283488,35.8171 207.891613,35.9057875 207.594612,36.08385 C207.2983,36.2619125 207.057675,36.4434125 206.872738,36.62835 C206.687113,36.813975 206.564738,36.93635 206.5063,36.995475 C206.446488,37.1735375 206.335113,37.2615375 206.172863,37.2615375 L204.439675,37.2615375 C204.305612,37.2615375 204.191488,37.2175375 204.09455,37.12885 C203.9983,37.039475 203.950175,36.921225 203.950175,36.772725 C203.9653,36.40285 204.1468,35.9841625 204.494675,35.51735 C204.843238,35.0505375 205.380175,34.6435375 206.106175,34.294975 C206.831488,33.9471 207.728675,33.772475 208.794988,33.772475 C210.5433,33.772475 211.817925,34.165725 212.617488,34.95085 C213.417738,35.735975 213.817863,36.76585 213.817863,38.0397875 L213.817863,45.0179125 C213.817863,45.165725 213.769738,45.292225 213.6728,45.3960375 C213.57655,45.4991625 213.4473,45.5514125 213.284363,45.5514125 L211.4398,45.5514125 C211.2913,45.5514125 211.165488,45.4991625 211.061675,45.3960375 C210.957863,45.292225 210.9063,45.165725 210.9063,45.0179125 L210.9063,44.1516625 C210.579738,44.62535 210.121175,45.014475 209.52855,45.3176625 C208.935238,45.6215375 208.1948,45.773475 207.305863,45.773475 C206.5503,45.773475 205.857988,45.6215375 205.228238,45.3176625" id="Fill-583" fill="#0033A1"></path>
                <path d="M216.395231,45.3957625 C216.291419,45.29195 216.239856,45.1661375 216.239856,45.018325 L216.239856,30.305825 C216.239856,30.143575 216.291419,30.0136375 216.395231,29.9173875 C216.499044,29.82045 216.624856,29.772325 216.772669,29.772325 L218.639919,29.772325 C218.802856,29.772325 218.932106,29.82045 219.029044,29.9173875 C219.125294,30.0136375 219.173419,30.143575 219.173419,30.305825 L219.173419,45.018325 C219.173419,45.1661375 219.125294,45.29195 219.029044,45.3957625 C218.932106,45.499575 218.802856,45.5511375 218.639919,45.5511375 L216.772669,45.5511375 C216.624856,45.5511375 216.499044,45.499575 216.395231,45.3957625" id="Fill-585" fill="#0033A1"></path>
                <path d="M94.377525,60.8797063 C95.3118375,60.8797063 96.0124,60.6734563 96.4792125,60.2609563 C96.9474,59.8484563 97.1804625,59.2448313 97.1804625,58.4500813 C97.1804625,57.6553313 96.9474,57.0448313 96.4792125,56.6165188 C96.0124,56.1882063 95.3118375,55.9737063 94.377525,55.9737063 L91.129775,55.9737063 L91.129775,60.8797063 L94.377525,60.8797063 Z M87.9995875,69.5463313 C87.8909625,69.4377063 87.8359625,69.3057063 87.8359625,69.1496437 L87.8359625,53.9414563 C87.8359625,53.7702688 87.88615,53.6300188 87.9879,53.5207063 C88.0889625,53.4120813 88.2250875,53.3577688 88.3969625,53.3577688 L94.44765,53.3577688 C96.363025,53.3577688 97.8610875,53.8012063 98.9445875,54.6887688 C100.026713,55.5770188 100.567775,56.8378938 100.567775,58.4734563 C100.567775,59.6105813 100.295525,60.5641438 99.7503375,61.3355188 C99.20515,62.1062063 98.442025,62.6630813 97.4609625,63.0054563 L100.848275,68.9626438 C100.894338,69.0561438 100.9184,69.1420813 100.9184,69.2197688 C100.9184,69.3600188 100.867525,69.4768938 100.766463,69.5697062 C100.6654,69.6632063 100.55265,69.7099563 100.427525,69.7099563 L98.2784,69.7099563 C98.029525,69.7099563 97.8349625,69.6515188 97.6947125,69.5353313 C97.5544625,69.4177688 97.4293375,69.2665188 97.3207125,69.0795188 L94.330775,63.5430813 L91.129775,63.5430813 L91.129775,69.1496437 C91.129775,69.3057063 91.0754625,69.4377063 90.9668375,69.5463313 C90.857525,69.6556437 90.717275,69.7099563 90.5460875,69.7099563 L88.3969625,69.7099563 C88.2409,69.7099563 88.1082125,69.6556437 87.9995875,69.5463313 L87.9995875,69.5463313 Z" id="Fill-587" fill="#0033A1"></path>
                <path d="M109.643669,66.8133812 C110.087106,66.2991312 110.324294,65.5442562 110.355231,64.5473812 C110.371731,64.3920062 110.379294,64.0881312 110.379294,63.6364437 C110.379294,63.1847562 110.371731,62.8815687 110.355231,62.7255062 C110.324294,61.7286312 110.082981,60.9696312 109.631981,60.4471312 C109.179606,59.9260062 108.549169,59.6647562 107.739981,59.6647562 C106.913606,59.6647562 106.274919,59.9260062 105.823919,60.4471312 C105.372231,60.9696312 105.130231,61.7286312 105.099981,62.7255062 L105.075919,63.6364437 L105.099981,64.5473812 C105.130231,65.5442562 105.372231,66.2991312 105.823919,66.8133812 C106.274919,67.3276312 106.913606,67.5840688 107.739981,67.5840688 C108.564294,67.5840688 109.199544,67.3276312 109.643669,66.8133812 M103.487794,68.5417562 C102.490919,67.6081312 101.953981,66.3149437 101.876294,64.6642562 L101.852919,63.6364437 L101.876294,62.6086312 C101.953981,60.9730687 102.498481,59.6846937 103.511169,58.7421312 C104.523169,57.8002562 105.933231,57.3286312 107.739981,57.3286312 C109.530231,57.3286312 110.932044,57.8002562 111.944731,58.7421312 C112.956731,59.6846937 113.501919,60.9730687 113.580294,62.6086312 C113.595419,62.7956312 113.602981,63.1380062 113.602981,63.6364437 C113.602981,64.1348812 113.595419,64.4772562 113.580294,64.6642562 C113.501919,66.3149437 112.964294,67.6081312 111.968106,68.5417562 C110.971231,69.4767562 109.561856,69.9442562 107.739981,69.9442562 C105.901606,69.9442562 104.483981,69.4767562 103.487794,68.5417562" id="Fill-589" fill="#0033A1"></path>
                <path d="M116.721756,74.0086875 C116.620006,73.9151875 116.569819,73.805875 116.569819,73.6814375 C116.569819,73.5728125 116.600756,73.4476875 116.663319,73.3074375 L118.508569,68.9858125 L114.023319,58.403125 C113.961444,58.2635625 113.929819,58.1549375 113.929819,58.0765625 C113.944944,57.9363125 114.000631,57.816 114.094131,57.71425 C114.186944,57.6131875 114.303819,57.563 114.444069,57.563 L116.382819,57.563 C116.663319,57.563 116.865444,57.7108125 116.990569,58.0064375 L120.098069,65.621875 L123.250944,58.0064375 C123.407006,57.7108125 123.624944,57.563 123.904756,57.563 L125.797444,57.563 C125.937694,57.563 126.054569,57.6090625 126.148069,57.7025625 C126.241569,57.7960625 126.288319,57.905375 126.288319,58.0298125 C126.288319,58.139125 126.256694,58.2635625 126.194819,58.403125 L119.583819,73.7048125 C119.458694,74.0004375 119.240756,74.1489375 118.929319,74.1489375 L117.060694,74.1489375 C116.935569,74.1489375 116.822819,74.1021875 116.721756,74.0086875" id="Fill-591" fill="#0033A1"></path>
                <path d="M133.413431,66.8600625 C133.957931,66.2990625 134.230869,65.489875 134.230869,64.4304375 L134.230869,63.963625 L131.894744,64.3369375 C130.103806,64.6174375 129.208681,65.217625 129.208681,66.136125 C129.208681,66.6345625 129.414931,67.02025 129.827431,67.2918125 C130.239931,67.56475 130.734931,67.7015625 131.311056,67.7015625 C132.166994,67.7015625 132.867556,67.4210625 133.413431,66.8600625 M128.332119,69.465 C127.670056,69.146 127.148244,68.7135625 126.767369,68.168375 C126.385806,67.6231875 126.194681,67.0236875 126.194681,66.369875 C126.194681,65.311125 126.622994,64.4538125 127.479619,63.8 C128.335556,63.1455 129.511869,62.7020625 131.007181,62.4683125 L134.208181,62.0008125 L134.208181,61.510625 C134.208181,60.841 134.036306,60.3343125 133.693931,59.9919375 C133.350869,59.6495625 132.805681,59.478375 132.058369,59.478375 C131.544806,59.478375 131.131619,59.571875 130.820181,59.7581875 C130.508744,59.9451875 130.255744,60.1363125 130.061181,60.330875 C129.865931,60.5254375 129.737369,60.654 129.675494,60.715875 C129.613619,60.9035625 129.496056,60.9970625 129.324869,60.9970625 L127.502994,60.9970625 C127.362744,60.9970625 127.241744,60.949625 127.140681,60.856125 C127.039619,60.7633125 126.988744,60.6381875 126.988744,60.4828125 C127.003869,60.093 127.194994,59.6536875 127.561431,59.162125 C127.927181,58.6719375 128.491619,58.243625 129.255431,57.877875 C130.017869,57.512125 130.960431,57.3285625 132.081744,57.3285625 C133.918744,57.3285625 135.259369,57.74175 136.099494,58.5674375 C136.940994,59.3924375 137.361056,60.4745625 137.361056,61.8145 L137.361056,69.1494375 C137.361056,69.3055 137.310869,69.4381875 137.209806,69.5468125 C137.107369,69.656125 136.971931,69.7104375 136.800744,69.7104375 L134.861994,69.7104375 C134.705931,69.7104375 134.573244,69.656125 134.464619,69.5468125 C134.355306,69.4381875 134.300994,69.3055 134.300994,69.1494375 L134.300994,68.2385 C133.957931,68.7369375 133.475306,69.146 132.852431,69.465 C132.229556,69.784 131.451306,69.9441875 130.516306,69.9441875 C129.722244,69.9441875 128.994181,69.784 128.332119,69.465" id="Fill-593" fill="#0033A1"></path>
                <path d="M139.720694,69.5466062 C139.611381,69.4379812 139.557069,69.3052937 139.557069,69.1499187 L139.557069,53.6846062 C139.557069,53.5134187 139.611381,53.3772937 139.720694,53.2755437 C139.829319,53.1744812 139.962006,53.1236062 140.117381,53.1236062 L142.080194,53.1236062 C142.251381,53.1236062 142.387506,53.1744812 142.488569,53.2755437 C142.589631,53.3772937 142.640506,53.5134187 142.640506,53.6846062 L142.640506,69.1499187 C142.640506,69.3052937 142.589631,69.4379812 142.488569,69.5466062 C142.387506,69.6559187 142.251381,69.7102312 142.080194,69.7102312 L140.117381,69.7102312 C139.962006,69.7102312 139.829319,69.6559187 139.720694,69.5466062" id="Fill-595" fill="#0033A1"></path>
                <path d="M151.821244,69.312925 C150.824369,68.892175 150.068806,68.3401125 149.555244,67.654675 C149.040994,66.9692375 148.768744,66.221925 148.737806,65.4113625 C148.737806,65.2876125 148.783869,65.174175 148.878056,65.0731125 C148.970869,64.97205 149.087744,64.921175 149.227994,64.921175 L151.354431,64.921175 C151.525619,64.921175 151.665181,64.9603625 151.774494,65.03805 C151.883119,65.116425 151.984869,65.22505 152.077681,65.3653 C152.233056,65.894675 152.587806,66.3388 153.141244,66.6969875 C153.693306,67.055175 154.452994,67.233925 155.418931,67.233925 C156.509306,67.233925 157.330181,67.05105 157.882931,66.6853 C158.435681,66.3188625 158.712744,65.8169875 158.712744,65.1783 C158.712744,64.75755 158.572494,64.4076125 158.291994,64.1271125 C158.011494,63.8466125 157.587306,63.601175 157.019431,63.3908 C156.450181,63.1811125 155.605931,62.927425 154.484619,62.6318 C152.646931,62.195925 151.299431,61.6198 150.443494,60.9027375 C149.586181,60.18705 149.158556,59.1592375 149.158556,57.8193 C149.158556,56.9166125 149.407431,56.1108625 149.905869,55.40205 C150.404306,54.6932375 151.116556,54.1363625 152.043306,53.731425 C152.969369,53.3264875 154.048056,53.123675 155.278681,53.123675 C156.571181,53.123675 157.688369,53.3498625 158.630931,53.80155 C159.572806,54.2532375 160.289869,54.817675 160.780056,55.49555 C161.270931,56.1727375 161.531494,56.8464875 161.562431,57.5161125 C161.562431,57.64055 161.515681,57.7533 161.422869,57.8543625 C161.329369,57.9561125 161.212494,58.0063 161.072244,58.0063 L158.852994,58.0063 C158.509931,58.0063 158.276181,57.86605 158.151744,57.5862375 C158.074056,57.0871125 157.770181,56.671175 157.241494,56.335675 C156.711431,56.00155 156.057619,55.8338 155.278681,55.8338 C154.422056,55.8338 153.748306,55.997425 153.257431,56.3239875 C152.767244,56.6512375 152.522494,57.1263 152.522494,57.749175 C152.522494,58.169925 152.646931,58.5198625 152.895806,58.8003625 C153.144681,59.0808625 153.533806,59.3263 154.063869,59.536675 C154.593244,59.74705 155.363931,59.9842375 156.376619,60.248925 C157.762619,60.56105 158.863994,60.9109875 159.682119,61.3001125 C160.499556,61.689925 161.103181,62.1801125 161.492994,62.77205 C161.881431,63.3639875 162.076681,64.11955 162.076681,65.03805 C162.076681,66.0507375 161.799619,66.9266125 161.247556,67.665675 C160.694119,68.4061125 159.915869,68.97055 158.911431,69.359675 C157.906994,69.7488 156.742369,69.94405 155.418931,69.94405 C154.017119,69.94405 152.817431,69.733675 151.821244,69.312925" id="Fill-597" fill="#0033A1"></path>
                <path d="M164.797806,68.5187937 C163.777556,67.5686687 163.236494,66.2527937 163.174619,64.5704812 L163.150556,63.6361687 L163.174619,62.7018562 C163.236494,61.0202312 163.777556,59.7036687 164.797806,58.7542312 C165.818056,57.8041062 167.184119,57.3283562 168.897369,57.3283562 C170.127994,57.3283562 171.167494,57.5469812 172.016556,57.9828562 C172.864931,58.4187312 173.495369,58.9522312 173.908556,59.5833562 C174.321056,60.2137937 174.542431,60.8181062 174.574744,61.3935437 C174.589869,61.5496062 174.539681,61.6822937 174.422119,61.7909187 C174.305931,61.8995437 174.169119,61.9545437 174.013744,61.9545437 L171.934744,61.9545437 C171.763556,61.9545437 171.638431,61.9194812 171.560744,61.8493562 C171.483056,61.7792312 171.404681,61.6506687 171.326994,61.4636687 C171.093244,60.8724187 170.785931,60.4441062 170.404369,60.1787312 C170.022806,59.9140437 169.536056,59.7820437 168.944806,59.7820437 C168.150056,59.7820437 167.530619,60.0309187 167.087181,60.5293562 C166.643744,61.0277937 166.405869,61.7909187 166.374931,62.8187312 L166.351556,63.6829187 L166.374931,64.4542937 C166.468431,66.4782937 167.324369,67.4909812 168.944806,67.4909812 C169.551869,67.4909812 170.042056,67.3624187 170.416744,67.1052937 C170.790056,66.8488562 171.093244,66.4164187 171.326994,65.8086687 C171.389556,65.6374812 171.463806,65.5130437 171.549056,65.4346687 C171.634306,65.3576687 171.763556,65.3184812 171.934744,65.3184812 L174.013744,65.3184812 C174.169119,65.3184812 174.305931,65.3727937 174.422119,65.4814187 C174.539681,65.5914187 174.589869,65.7234187 174.574744,65.8787937 C174.542431,66.4239812 174.325181,67.0117937 173.920244,67.6429187 C173.515306,68.2733562 172.893119,68.8144187 172.050931,69.2667937 C171.210119,69.7177937 170.158931,69.9439812 168.897369,69.9439812 C167.184119,69.9439812 165.818056,69.4689187 164.797806,68.5187937" id="Fill-599" fill="#0033A1"></path>
                <path d="M176.373313,69.5466062 C176.264,69.4379812 176.209688,69.3052937 176.209688,69.1499187 L176.209688,53.6846062 C176.209688,53.5134187 176.264,53.3772937 176.373313,53.2755437 C176.481938,53.1744812 176.613938,53.1236062 176.77,53.1236062 L178.89575,53.1236062 C179.067625,53.1236062 179.20375,53.1744812 179.304813,53.2755437 C179.405875,53.3772937 179.45675,53.5134187 179.45675,53.6846062 L179.45675,59.0113562 C180.391063,57.8893562 181.644375,57.3290437 183.218063,57.3290437 C184.650813,57.3290437 185.7955,57.7999812 186.652125,58.7418562 C187.508063,59.6844187 187.937063,60.9652312 187.937063,62.5849812 L187.937063,69.1499187 C187.937063,69.3052937 187.886188,69.4379812 187.784438,69.5466062 C187.683375,69.6559187 187.54725,69.7102312 187.376063,69.7102312 L185.250313,69.7102312 C185.079125,69.7102312 184.938875,69.6559187 184.83025,69.5466062 C184.72025,69.4379812 184.666625,69.3052937 184.666625,69.1499187 L184.666625,62.7252312 C184.666625,61.8218562 184.444563,61.1171687 184.000438,60.6111687 C183.556313,60.1051687 182.92175,59.8514812 182.09675,59.8514812 C181.302688,59.8514812 180.663313,60.1092937 180.180688,60.6228562 C179.698063,61.1364187 179.45675,61.8376687 179.45675,62.7252312 L179.45675,69.1499187 C179.45675,69.3052937 179.405875,69.4379812 179.304813,69.5466062 C179.20375,69.6559187 179.067625,69.7102312 178.89575,69.7102312 L176.77,69.7102312 C176.613938,69.7102312 176.481938,69.6559187 176.373313,69.5466062" id="Fill-601" fill="#0033A1"></path>
                <path d="M197.385994,66.8133812 C197.830119,66.2991312 198.067306,65.5442562 198.098244,64.5473812 C198.114056,64.3920062 198.121619,64.0881312 198.121619,63.6364437 C198.121619,63.1847562 198.114056,62.8815687 198.098244,62.7255062 C198.067306,61.7286312 197.825994,60.9696312 197.374994,60.4471312 C196.922619,59.9260062 196.291494,59.6647562 195.482306,59.6647562 C194.656619,59.6647562 194.017931,59.9260062 193.566931,60.4471312 C193.114556,60.9696312 192.873244,61.7286312 192.842306,62.7255062 L192.818931,63.6364437 L192.842306,64.5473812 C192.873244,65.5442562 193.114556,66.2991312 193.566931,66.8133812 C194.017931,67.3276312 194.656619,67.5840688 195.482306,67.5840688 C196.307306,67.5840688 196.942556,67.3276312 197.385994,66.8133812 M191.230806,68.5417562 C190.233931,67.6081312 189.695619,66.3149437 189.618619,64.6642562 L189.595244,63.6364437 L189.618619,62.6086312 C189.695619,60.9730687 190.241494,59.6846937 191.254181,58.7421312 C192.266181,57.8002562 193.675556,57.3286312 195.482306,57.3286312 C197.272556,57.3286312 198.675056,57.8002562 199.687056,58.7421312 C200.699056,59.6846937 201.244244,60.9730687 201.322619,62.6086312 C201.337744,62.7956312 201.345306,63.1380062 201.345306,63.6364437 C201.345306,64.1348812 201.337744,64.4772562 201.322619,64.6642562 C201.244244,66.3149437 200.707306,67.6081312 199.710431,68.5417562 C198.713556,69.4767562 197.304181,69.9442562 195.482306,69.9442562 C193.643931,69.9442562 192.226994,69.4767562 191.230806,68.5417562" id="Fill-603" fill="#0033A1"></path>
                <path d="M210.421063,66.8133812 C210.865188,66.2991312 211.102375,65.5442562 211.133313,64.5473812 C211.149125,64.3920062 211.156688,64.0881312 211.156688,63.6364437 C211.156688,63.1847562 211.149125,62.8815687 211.133313,62.7255062 C211.102375,61.7286312 210.861063,60.9696312 210.409375,60.4471312 C209.957688,59.9260062 209.326563,59.6647562 208.517375,59.6647562 C207.691688,59.6647562 207.053,59.9260062 206.602,60.4471312 C206.149625,60.9696312 205.908313,61.7286312 205.877375,62.7255062 L205.854,63.6364437 L205.877375,64.5473812 C205.908313,65.5442562 206.149625,66.2991312 206.602,66.8133812 C207.053,67.3276312 207.691688,67.5840688 208.517375,67.5840688 C209.342375,67.5840688 209.976938,67.3276312 210.421063,66.8133812 M204.265875,68.5417562 C203.268313,67.6081312 202.730688,66.3149437 202.653688,64.6642562 L202.630313,63.6364437 L202.653688,62.6086312 C202.730688,60.9730687 203.275875,59.6846937 204.28925,58.7421312 C205.30125,57.8002562 206.710625,57.3286312 208.517375,57.3286312 C210.307625,57.3286312 211.709438,57.8002562 212.722125,58.7421312 C213.734125,59.6846937 214.279313,60.9730687 214.357688,62.6086312 C214.372813,62.7956312 214.380375,63.1380062 214.380375,63.6364437 C214.380375,64.1348812 214.372813,64.4772562 214.357688,64.6642562 C214.279313,66.3149437 213.742375,67.6081312 212.7455,68.5417562 C211.748625,69.4767562 210.33925,69.9442562 208.517375,69.9442562 C206.679,69.9442562 205.262063,69.4767562 204.265875,68.5417562" id="Fill-605" fill="#0033A1"></path>
                <g id="Group-609" transform="translate(215.997100, 52.626131)">
                    <mask id="mask-2" fill="white">
                        <use xlink:href="#path-1"></use>
                    </mask>
                    <g id="Clip-608"></g>
                    <path d="M0.34595,16.920475 C0.2366375,16.81185 0.182325,16.6791625 0.182325,16.5237875 L0.182325,1.058475 C0.182325,0.8872875 0.2366375,0.7511625 0.34595,0.6494125 C0.454575,0.54835 0.586575,0.497475 0.7426375,0.497475 L2.70545,0.497475 C2.8766375,0.497475 3.0127625,0.54835 3.113825,0.6494125 C3.2148875,0.7511625 3.2657625,0.8872875 3.2657625,1.058475 L3.2657625,16.5237875 C3.2657625,16.6791625 3.2148875,16.81185 3.113825,16.920475 C3.0127625,17.0297875 2.8766375,17.0841 2.70545,17.0841 L0.7426375,17.0841 C0.586575,17.0841 0.454575,17.0297875 0.34595,16.920475" id="Fill-607" fill="#0033A1" mask="url(#mask-2)"></path>
                </g>
                <path d="M47.2872813,57.52175 C63.1362188,57.52175 75.9904063,44.702625 76.0476536,28.8674375 C76.1045313,12.991 62.9409688,9.76996262e-15 47.0638437,9.76996262e-15 L26.9689063,9.76996262e-15 C24.1590938,9.76996262e-15 21.8820938,2.2776875 21.8820938,5.0875 L21.8820938,52.4349375 C21.8820938,55.2440625 24.1590938,57.52175 26.9689063,57.52175 L47.2872813,57.52175 Z" id="Fill-610" fill="#00BFDC"></path>
                <path d="M4.40556875,69.7417187 L12.4506937,69.7417187 C14.8844438,69.7417187 16.8568812,67.7692812 16.8568812,65.3362188 L16.8568812,38.2521562 C16.8568812,35.8184062 14.8844438,33.8459687 12.4506937,33.8459687 L4.40556875,33.8459687 C1.97250625,33.8459687 6.875e-05,35.8184062 6.875e-05,38.2521562 L6.875e-05,65.3362188 C6.875e-05,67.7692812 1.97250625,69.7417187 4.40556875,69.7417187" id="Fill-612" fill="#FFCB05"></path>
                <path d="M16.8568125,22.2011625 C16.8568125,26.856225 13.083125,30.6299125 8.4280625,30.6299125 C3.773,30.6299125 0,26.856225 0,22.2011625 C0,17.5461 3.773,13.7724125 8.4280625,13.7724125 C13.083125,13.7724125 16.8568125,17.5461 16.8568125,22.2011625" id="Fill-614" fill="#EF4123"></path>
                <path d="M74.6812,61.1960937 L64.348075,51.9155312 L30.3972625,21.3905312 L21.8818875,13.7723437 L21.8818875,25.1504687 L21.8818875,64.6549062 C21.8818875,67.4647187 24.159575,69.7417187 26.9693875,69.7417187 L70.950825,69.7417187 C75.3907,69.7417187 77.7000125,64.4520937 74.6812,61.1960937" id="Fill-616" fill="#0033A1"></path>
            </g>
        </g>
    </g>
</svg>